<?xml version="1.0" encoding="utf-8"?>
<!-- Generator: Adobe Illustrator 26.0.1, SVG Export Plug-In . SVG Version: 6.00 Build 0)  -->
<svg version="1.1" id="Layer_3" xmlns="http://www.w3.org/2000/svg" xmlns:xlink="http://www.w3.org/1999/xlink" x="0px" y="0px"
	 viewBox="0 0 16 16" style="enable-background:new 0 0 16 16;" xml:space="preserve">
<style type="text/css">
	.st0{fill:#1ED760;}
</style>
<path class="st0" d="M1.3,2L1.3,2C2,2,2.6,2.6,2.6,3.3v9.4C2.6,13.4,2,14,1.3,14h0C0.6,14,0,13.4,0,12.7V3.3C0,2.6,0.6,2,1.3,2z"/>
<path class="st0" d="M14.7,1L14.7,1C15.4,1,16,1.7,16,2.5v11c0,0.8-0.6,1.5-1.3,1.5h0c-0.7,0-1.3-0.7-1.3-1.5v-11
	C13.4,1.7,14,1,14.7,1z"/>
<path class="st0" d="M5.8,0L5.8,0c0.7,0,1.3,0.6,1.3,1.5v13.1c0,0.8-0.6,1.4-1.3,1.4h0c-0.7,0-1.3-0.6-1.3-1.4V1.4
	C4.5,0.6,5,0,5.8,0z"/>
<path class="st0" d="M10.2,3.5L10.2,3.5c0.7,0,1.3,0.5,1.3,1.2v6.6c0,0.7-0.6,1.2-1.3,1.2h0c-0.7,0-1.3-0.5-1.3-1.2V4.7
	C8.9,4,9.5,3.5,10.2,3.5z"/>
</svg>
